<?xml version="1.0" standalone="no"?>
<!DOCTYPE svg PUBLIC "-//W3C//DTD SVG 20010904//EN"
 "http://www.w3.org/TR/2001/REC-SVG-20010904/DTD/svg10.dtd">
<svg version="1.0" xmlns="http://www.w3.org/2000/svg"
 width="346.000000pt" height="146.000000pt" viewBox="0 0 346.000000 146.000000"
 preserveAspectRatio="xMidYMid meet">
<metadata>
Created by potrace 1.16, written by Peter Selinger 2001-2019
</metadata>
<g transform="translate(0.000000,146.000000) scale(0.100000,-0.100000)"
fill="#000000" stroke="none">
<path d="M558 1250 c-45 -24 -75 -61 -88 -111 l-11 -38 -36 22 c-105 62 -239
-5 -259 -130 -6 -37 7 -78 43 -144 2 -4 -13 -9 -34 -12 -49 -8 -108 -58 -123
-103 -16 -48 -8 -129 17 -162 29 -39 82 -72 115 -72 16 0 28 -3 26 -7 -42 -81
-50 -108 -44 -146 15 -94 84 -152 177 -151 41 1 65 7 87 23 l31 22 11 -40 c21
-80 88 -131 171 -131 81 0 154 59 166 134 3 20 7 36 10 36 2 0 17 -10 34 -22
44 -33 133 -32 182 2 74 51 102 164 57 238 -11 18 -20 34 -20 36 0 2 16 6 35
9 50 8 94 43 116 91 24 54 24 100 -2 153 -24 50 -65 82 -114 90 -19 3 -35 7
-35 9 0 2 9 18 20 36 24 40 27 126 5 167 -46 90 -169 125 -247 70 -14 -11 -28
-19 -31 -19 -2 0 -7 16 -10 35 -17 107 -149 168 -249 115z m143 -89 c33 -33
39 -84 14 -117 -15 -20 -22 -204 -7 -204 17 0 137 132 146 162 8 23 22 39 48
51 33 16 40 17 71 3 41 -17 57 -41 57 -89 0 -37 -39 -87 -69 -87 -9 0 -48 -32
-86 -71 l-70 -70 105 5 c58 2 123 7 146 11 35 6 45 3 70 -18 40 -35 41 -99 1
-133 -29 -25 -100 -34 -112 -14 -3 6 -51 10 -108 10 l-101 0 69 -70 c38 -38
77 -70 86 -70 30 0 69 -50 69 -87 0 -48 -16 -72 -57 -89 -31 -14 -38 -13 -71
3 -26 12 -40 28 -48 51 -9 30 -129 162 -146 162 -15 0 -8 -184 7 -204 25 -33
19 -84 -14 -117 -41 -41 -102 -37 -138 10 -15 19 -17 97 -3 106 6 3 10 51 10
108 l0 101 -70 -69 c-38 -38 -70 -75 -70 -83 0 -25 -32 -61 -64 -72 -56 -18
-110 16 -121 76 -8 40 26 93 64 100 17 4 55 33 97 76 l69 69 -105 -4 c-58 -3
-122 -8 -143 -12 -90 -17 -140 74 -80 145 24 30 29 31 72 25 25 -3 93 -9 151
-11 l105 -5 -69 69 c-41 43 -80 72 -97 76 -59 12 -84 103 -40 150 27 29 64 37
102 24 28 -10 59 -47 59 -70 0 -8 32 -45 70 -83 l70 -69 0 101 c0 57 -4 105
-10 108 -5 3 -10 26 -10 50 0 36 5 48 31 69 41 35 83 34 120 -3z"/>
<path d="M1468 1236 c-272 -112 -293 -491 -35 -623 27 -13 89 -33 139 -44 110
-23 134 -37 160 -96 24 -55 18 -99 -19 -143 -37 -45 -79 -63 -130 -57 -59 6
-91 31 -117 88 l-21 49 -97 0 c-114 0 -111 4 -78 -103 26 -84 96 -164 178
-204 50 -25 68 -28 152 -28 79 0 103 4 142 24 75 37 134 95 170 169 29 59 33
76 33 147 -1 102 -35 184 -105 249 -63 59 -96 75 -209 97 -106 21 -137 39
-163 90 -23 43 -23 85 0 129 57 114 222 105 267 -15 l18 -45 98 0 99 0 -6 43
c-16 115 -112 236 -220 276 -77 29 -181 28 -256 -3z"/>
<path d="M2077 668 c67 -326 123 -594 123 -596 0 -1 46 -1 102 0 l102 3 117
565 c65 311 120 577 123 593 l6 27 -100 0 -99 0 -10 -37 c-5 -21 -38 -176 -72
-346 -34 -169 -66 -304 -69 -300 -4 5 -38 160 -76 346 l-69 337 -100 0 -101 0
123 -592z"/>
<path d="M2890 1244 c-98 -36 -176 -111 -212 -206 -18 -48 -19 -77 -18 -370 1
-350 4 -371 62 -456 90 -130 279 -179 430 -110 68 31 128 89 165 160 28 53 28
54 31 281 l3 227 -170 0 -171 0 0 -105 0 -105 70 0 70 0 0 -94 c0 -80 -3 -98
-23 -127 -61 -92 -190 -90 -247 3 -19 31 -20 47 -18 335 l3 303 37 36 c31 32
44 38 90 41 41 3 60 -1 86 -16 35 -22 72 -75 72 -103 0 -16 12 -18 101 -18
l102 0 -6 50 c-13 105 -93 212 -196 261 -62 30 -196 36 -261 13z"/>
</g>
</svg>
